<?xml version="1.0" standalone="no"?>
<!DOCTYPE svg PUBLIC "-//W3C//DTD SVG 20010904//EN"
 "http://www.w3.org/TR/2001/REC-SVG-20010904/DTD/svg10.dtd">
<svg version="1.0" xmlns="http://www.w3.org/2000/svg"
 width="128.000000pt" height="128.000000pt" viewBox="0 0 128.000000 128.000000"
 preserveAspectRatio="xMidYMid meet">
<metadata>
Created by potrace 1.11, written by Peter Selinger 2001-2013
</metadata>
<g transform="translate(0.000000,128.000000) scale(0.100000,-0.100000)"
fill="#000000" stroke="none">
<path d="M903 688 c-17 -6 -46 -26 -64 -44 -28 -29 -33 -43 -37 -92 -7 -97 29
-142 160 -202 93 -41 118 -80 78 -120 -39 -39 -129 -21 -168 32 -13 18 -16 18
-60 -8 -26 -15 -49 -28 -51 -30 -2 -2 6 -15 18 -30 112 -143 371 -112 397 47
8 49 -13 119 -46 148 -15 15 -67 46 -116 71 -77 39 -89 49 -92 73 -2 16 2 35
9 43 18 22 75 18 100 -7 22 -22 23 -22 56 -4 61 33 63 43 15 85 -55 50 -122
62 -199 38z"/>
<path d="M570 466 c0 -191 -2 -227 -16 -240 -26 -26 -69 -20 -98 14 l-25 31
-43 -28 c-24 -15 -45 -28 -46 -29 -2 -2 4 -17 14 -34 11 -17 40 -41 68 -55 81
-41 168 -30 224 28 44 45 53 111 50 347 l-3 185 -62 3 -63 3 0 -225z"/>
</g>
</svg>
